<svg width="103" height="81" viewBox="0 0 103 81" fill="none" xmlns="http://www.w3.org/2000/svg">
<g filter="url(#filter0_d)">
<path d="M32.6728 58.9882C32.9277 59.1639 33.0946 59.4576 33.0946 59.7898L33.0929 59.849C34.0806 61.7575 35.3573 63.4925 36.8652 64.9965C40.6155 68.7371 45.798 71.0514 51.5217 71.0514C57.2454 71.0514 62.4279 68.7371 66.1782 64.9965C69.9285 61.2558 72.2488 56.0868 72.2488 50.3779C72.2488 44.6685 69.9286 39.4995 66.1782 35.7588C62.4281 32.0179 57.2457 29.7036 51.5217 29.7036C45.798 29.7036 40.6158 32.0179 36.8652 35.7588C33.1148 39.4995 30.7945 44.6685 30.7945 50.3779C30.7945 53.4507 31.4673 56.3667 32.6727 58.9881L32.6728 58.9882ZM45.1526 59.3529H43.0082V45.7152C42.4914 46.2064 41.8158 46.6974 40.9774 47.1887C40.1351 47.6797 39.3824 48.049 38.7151 48.2926V46.2266C39.9153 45.6625 40.9653 44.9806 41.8648 44.181C42.7599 43.3773 43.3989 42.6021 43.7733 41.8474H45.1526V59.3529L45.1526 59.3529ZM50.6505 54.7867L52.9047 54.596C53.0717 55.6919 53.4581 56.5117 54.0646 57.0636C54.6751 57.6156 55.4076 57.8917 56.2661 57.8917C57.2996 57.8917 58.1746 57.502 58.8869 56.7268C59.6029 55.9476 59.9611 54.9165 59.9611 53.6339C59.9611 52.4124 59.6193 51.4505 58.9315 50.7441C58.2438 50.038 57.3446 49.6848 56.2294 49.6848C55.5376 49.6848 54.915 49.8432 54.3576 50.1556C53.8001 50.4683 53.3647 50.8741 53.0472 51.3732L51.0329 51.1134L52.7257 42.1598H61.4179V44.2054H54.443L53.4988 48.8892C54.5488 48.1586 55.6515 47.7933 56.8033 47.7933C58.3291 47.7933 59.6153 48.3211 60.665 49.3764C61.715 50.4317 62.2398 51.7873 62.2398 53.4432C62.2398 55.022 61.7761 56.3859 60.8562 57.5345C59.7332 58.943 58.2031 59.6491 56.2661 59.6491C54.6751 59.6491 53.3768 59.2067 52.3718 58.318C51.3665 57.4289 50.793 56.2519 50.6505 54.7867L50.6505 54.7867ZM31.3681 60.764H17.2042C16.3067 60.764 15.4895 60.397 14.8968 59.8062L14.8951 59.8041L14.8931 59.8062C14.3008 59.2154 13.9328 58.3991 13.9328 57.5017V42.5219C13.9328 41.6245 14.3008 40.8082 14.8931 40.2174C14.9133 40.1973 14.9343 40.178 14.956 40.1599C15.5431 39.603 16.3361 39.2596 17.2042 39.2596H29.9654L20.5095 29.0056C20.4582 28.9498 20.4146 28.8897 20.3786 28.8264L16.2643 32.3717C15.858 32.7223 15.2426 32.678 14.891 32.2728C14.5395 31.8675 14.5839 31.2537 14.9903 30.9031L36.5058 12.363C36.9122 12.0124 37.5276 12.0567 37.8791 12.462C38.2306 12.8672 38.1862 13.481 37.7799 13.8317L33.0015 17.9494L43.4162 29.2432C45.9332 28.2822 48.6659 27.7553 51.5217 27.7553C54.3899 27.7553 57.1335 28.2865 59.6597 29.2558L70.0471 17.9914L65.2196 13.8317C64.8133 13.481 64.7689 12.8672 65.1204 12.462C65.472 12.0567 66.0874 12.0124 66.4937 12.363L88.0093 30.9031C88.4156 31.2537 88.46 31.8675 88.1085 32.2728C87.7569 32.678 87.1415 32.7223 86.7352 32.3717L82.5754 28.787C82.5448 28.835 82.5093 28.881 82.4695 28.9242L71.8838 40.4035C73.3683 43.4127 74.2023 46.7981 74.2023 50.3779C74.2023 56.6244 71.6635 62.2798 67.559 66.3736C63.4545 70.4674 57.7844 72.9997 51.5217 72.9997C45.259 72.9997 39.5889 70.4674 35.4845 66.3736C33.8401 64.7335 32.4476 62.8429 31.3682 60.7639L31.3681 60.764ZM41.5262 30.0658L31.5256 19.221L21.8251 27.5798C21.8672 27.6123 21.9067 27.6486 21.944 27.6888L32.0951 38.6967C33.0482 37.1231 34.1882 35.6746 35.4844 34.3817C37.2378 32.6326 39.2769 31.1689 41.5262 30.0658L41.5262 30.0658ZM30.7824 41.208H17.2042C16.8599 41.208 16.5461 41.3403 16.3105 41.5561L16.2739 41.5946C16.0351 41.8328 15.8863 42.1615 15.8863 42.5219V57.5017C15.8863 57.8621 16.0351 58.1909 16.2739 58.429L16.2719 58.431C16.5109 58.6686 16.8408 58.8156 17.2042 58.8156H30.4721C29.4204 56.2082 28.8411 53.3607 28.8411 50.378C28.8411 47.1137 29.5346 44.011 30.7824 41.208V41.208ZM61.5476 30.0808C63.7846 31.1824 65.8136 32.6407 67.5588 34.3817C68.83 35.6496 69.9507 37.067 70.8925 38.6058L81.035 27.6074C81.0607 27.5795 81.0878 27.5536 81.1158 27.5295L71.5229 19.2633L61.5476 30.0808V30.0808ZM31.0174 6.45339C31.4237 6.10277 32.0391 6.14706 32.3906 6.55233C32.7421 6.9576 32.6977 7.57141 32.2914 7.92203L10.7758 26.4624C10.3695 26.813 9.75411 26.7687 9.40258 26.3634C9.05104 25.9582 9.09545 25.3444 9.50178 24.9937L31.0174 6.45339ZM25.8519 0.236533C26.2583 -0.114087 26.8737 -0.0697931 27.2252 0.335478C27.5767 0.740749 27.5323 1.35455 27.126 1.70517L5.6104 20.2452C5.20407 20.5959 4.58867 20.5516 4.23714 20.1463C3.88561 19.741 3.93002 19.1272 4.33634 18.7766L14.3422 10.1543L10.4972 5.91062C10.137 5.51369 10.1679 4.90017 10.5659 4.54092C10.9638 4.18167 11.5789 4.21245 11.9391 4.60938L15.814 8.88616L25.8519 0.23654L25.8519 0.236533ZM70.7082 7.92202C70.3018 7.5714 70.2574 6.9576 70.6089 6.55233C70.9605 6.14705 71.5759 6.10276 71.9822 6.45338L93.4981 24.9937C93.9044 25.3444 93.9488 25.9582 93.5973 26.3634C93.2457 26.7687 92.6303 26.813 92.224 26.4624L70.7082 7.92202ZM75.8739 1.70517C75.4675 1.35455 75.4231 0.740744 75.7747 0.335473C76.1262 -0.0697984 76.7416 -0.114092 77.1479 0.236528L87.1855 8.88615L91.0604 4.60937C91.4206 4.21244 92.0357 4.18166 92.4337 4.54091C92.8316 4.90016 92.8625 5.51368 92.5023 5.91061L88.6573 10.1543L98.6632 18.7766C99.0695 19.1272 99.1139 19.741 98.7624 20.1463C98.4108 20.5516 97.7954 20.5958 97.3891 20.2452L75.8738 1.70516L75.8739 1.70517Z" fill="#0082C9"/>
</g>
<defs>
<filter id="filter0_d" x="0" y="0" width="103" height="81" filterUnits="userSpaceOnUse" color-interpolation-filters="sRGB">
<feFlood flood-opacity="0" result="BackgroundImageFix"/>
<feColorMatrix in="SourceAlpha" type="matrix" values="0 0 0 0 0 0 0 0 0 0 0 0 0 0 0 0 0 0 127 0"/>
<feOffset dy="4"/>
<feGaussianBlur stdDeviation="2"/>
<feColorMatrix type="matrix" values="0 0 0 0 0 0 0 0 0 0 0 0 0 0 0 0 0 0 0.25 0"/>
<feBlend mode="normal" in2="BackgroundImageFix" result="effect1_dropShadow"/>
<feBlend mode="normal" in="SourceGraphic" in2="effect1_dropShadow" result="shape"/>
</filter>
</defs>
</svg>
