<svg width="95" height="84" viewBox="0 0 95 84" fill="none" xmlns="http://www.w3.org/2000/svg">
<g clip-path="url(#clip0)" filter="url(#filter0_d)">
<path d="M32.2572 49.7286C32.1685 50.0091 31.9574 50.2478 31.6608 50.3594L32.2572 49.7286ZM36.6585 39.2326L36.6685 39.2226L36.6585 39.2326ZM48.8139 27.3629C48.4944 26.9169 48.5972 26.2956 49.0432 25.9761C49.4892 25.6566 50.1106 25.7594 50.4301 26.2054L54.4056 31.7546L60.9173 23.3067C61.2518 22.8735 61.8748 22.7937 62.308 23.1281C62.7411 23.4626 62.8209 24.0857 62.4865 24.5188L55.2046 33.9659C55.1394 34.0646 55.0554 34.1533 54.9535 34.2264C54.5075 34.5459 53.8862 34.4431 53.5667 33.9971L48.8139 27.3629V27.3629ZM4.99044 31.6453C4.44369 31.6453 4 31.2016 4 30.6549C4 30.1081 4.44368 29.6645 4.99044 29.6645L38.4776 29.6994C39.145 29.7 39.7561 29.446 40.2138 29.0258C40.6705 28.6065 40.9744 28.0195 41.0304 27.3538C41.224 25.05 41.978 22.8333 43.2039 20.8938C44.4111 18.9837 46.0739 17.3441 48.1071 16.1563C51.5329 14.1549 55.4491 13.7323 59.0095 14.667L59.0606 14.6817C62.6009 15.6254 65.7831 17.9114 67.7742 21.3196C69.7757 24.7457 70.1985 28.6614 69.2638 32.222L69.2492 32.2731C68.3051 35.8137 66.0195 38.9955 62.6112 40.9867C59.1851 42.9881 55.2692 43.411 51.7085 42.4763L51.6574 42.4616C48.1406 41.5241 44.9781 39.2625 42.9843 35.8921L38.0615 40.6338L35.7177 42.9949C35.4405 43.2739 35.3013 43.645 35.3013 44.0179C35.3013 44.3862 35.4399 44.7538 35.7177 45.0316L38.9874 48.3009C39.2654 48.579 39.6342 48.7185 40.0036 48.7185C40.3745 48.7185 40.7436 48.5796 41.0217 48.3027L41.0199 48.3009L44.0041 45.3164C44.3515 44.969 44.8918 44.9329 45.28 45.2069C46.1444 45.7298 47.0491 46.1873 47.9873 46.5729C48.9269 46.959 49.9103 47.2761 50.9307 47.5172C51.3894 47.6238 51.6992 48.0328 51.6989 48.4844H51.7V52.7245C51.7 53.1192 51.8618 53.4783 52.1226 53.7391C52.3833 53.9998 52.7424 54.1616 53.1371 54.1616H57.761C58.1571 54.1616 58.5168 54.0001 58.777 53.7408L58.7752 53.7391C59.0359 53.4783 59.1977 53.1189 59.1977 52.7245V48.5082C59.1977 48.0134 59.5595 47.6032 60.0326 47.5266C61.0256 47.294 61.9952 46.9831 62.9325 46.6028C63.8997 46.2102 64.8303 45.7422 65.7156 45.2066C66.1146 44.9661 66.6156 45.0392 66.9307 45.3549L66.9312 45.3543L69.5863 48.0093H79.2655L88.2085 23.7247C88.397 23.21 88.9678 22.9457 89.4826 23.1342C89.9973 23.3227 90.2616 23.8935 90.0731 24.4083L80.9095 49.2916C80.7859 49.7004 80.4062 49.9984 79.9573 49.9984H69.1749V49.9981C68.9203 49.9981 68.666 49.9009 68.472 49.7068L66.0653 47.3002C65.2977 47.7274 64.5008 48.1101 63.6783 48.4439C62.8741 48.7704 62.0419 49.0512 61.1868 49.282V52.7245C61.1868 53.6671 60.8016 54.5245 60.1811 55.145L60.1791 55.1429L60.1773 55.145C59.5569 55.7652 58.7009 56.1507 57.761 56.1507H53.1371C52.1939 56.1507 51.3371 55.7654 50.7166 55.145C50.0962 54.5245 49.7109 53.6677 49.7109 52.7245V49.2546C48.8676 49.0218 48.0404 48.7378 47.2338 48.4063C46.4184 48.0713 45.6288 47.689 44.8692 47.2632L42.4258 49.7068L42.4238 49.7048L42.422 49.7068C41.7546 50.3737 40.8778 50.7076 40.0036 50.7076C39.1265 50.7076 38.2483 50.3737 37.5814 49.7068L34.3118 46.4375C33.6449 45.7706 33.3122 44.8939 33.3122 44.0179C33.3122 43.1444 33.6464 42.2667 34.3118 41.5966L36.6585 39.2325L36.6841 39.207L42.5257 33.58C42.6152 33.4831 42.7256 33.4027 42.8539 33.3463C43.3558 33.1255 43.9422 33.3531 44.163 33.8549C44.2437 34.0387 44.3227 34.2031 44.4002 34.3532C44.4728 34.4938 44.5497 34.6336 44.6299 34.7725L44.661 34.8218C46.3817 37.7673 49.1269 39.7397 52.1769 40.5489L52.2136 40.5577C55.2785 41.3623 58.6533 40.9964 61.6093 39.2695C64.5548 37.5488 66.5272 34.8036 67.3364 31.7537L67.3452 31.7169C68.1498 28.6517 67.7839 25.2775 66.0571 22.3215C64.3364 19.376 61.5911 17.4037 58.5412 16.5944L58.5045 16.5856C55.4398 15.781 52.065 16.1466 49.109 17.8735C47.3513 18.9003 45.9178 20.3112 44.8818 21.9503C43.8274 23.6185 43.1781 25.5286 43.0113 27.5171C42.9121 28.6978 42.3709 29.7399 41.5581 30.4863C40.7468 31.2313 39.663 31.6811 38.4776 31.6803L4.99046 31.6453L4.99044 31.6453ZM73.8512 39.9611C73.5576 40.4221 72.945 40.5578 72.484 40.2641C72.023 39.9705 71.8874 39.358 72.181 38.897C72.7424 38.0163 73.2416 37.075 73.6694 36.081C74.0873 35.1099 74.4291 34.1054 74.6854 33.0762C74.7967 32.6234 75.2025 32.3207 75.6488 32.321V32.3186H79.6038C79.9999 32.3186 80.3596 32.1571 80.6198 31.8979L80.618 31.8961C80.8788 31.6353 81.0406 31.2759 81.0406 30.8816V26.258C81.0406 25.8636 80.8788 25.5042 80.618 25.2435L80.5799 25.2029C80.3235 24.9663 79.98 24.8209 79.6038 24.8209H75.7877C75.2956 24.8209 74.8866 24.463 74.8073 23.9935C74.5724 22.9293 74.2541 21.9016 73.8603 20.92C73.4524 19.9028 72.9612 18.9259 72.3968 17.9995C72.1537 17.6007 72.2256 17.0977 72.5422 16.7815L72.5407 16.78L75.1799 14.1408C75.4583 13.8624 75.5977 13.4936 75.5977 13.1245C75.5977 12.7536 75.4586 12.3845 75.1817 12.1062L75.1799 12.1079L71.9106 8.83858L71.8724 8.79836C71.599 8.547 71.2472 8.42074 70.894 8.42074C70.5249 8.42074 70.1561 8.56022 69.8777 8.83858L67.2964 11.4199C66.9516 11.7647 66.4166 11.8028 66.0293 11.5356C65.1061 10.9534 64.1339 10.446 63.1232 10.0237C62.1098 9.60028 61.0557 9.25819 59.9707 9.00772C59.5109 8.9026 59.1993 8.49327 59.1996 8.04049H59.1976V4.41466C59.1976 4.01855 59.0361 3.65884 58.7768 3.39868C58.5166 3.1394 58.1569 2.9779 57.7608 2.9779H53.1369C52.7426 2.9779 52.3832 3.1397 52.1224 3.40044L52.0819 3.43862C51.8452 3.69496 51.6999 4.03852 51.6999 4.41466V8.06515C51.6999 8.55494 51.3457 8.96221 50.8794 9.04443C49.8091 9.30019 48.7788 9.63993 47.798 10.0548C46.7765 10.4868 45.799 11.0024 44.8755 11.5914C44.4764 11.8454 43.964 11.7782 43.6431 11.4567L43.6404 11.4593L41.0197 8.8386L41.0194 8.8383C40.7414 8.56023 40.3726 8.42075 40.0035 8.42075C39.6341 8.42075 39.2656 8.56023 38.9875 8.8383L38.9872 8.8386L35.7178 12.1079C35.4395 12.3863 35.3 12.7551 35.3 13.1245C35.3 13.496 35.438 13.8651 35.714 14.1408L35.7158 14.1428L35.7178 14.1408L38.419 16.842C38.7267 17.1497 38.7904 17.6086 38.6104 17.9795L36.1254 24.1852C35.9701 24.5725 35.598 24.808 35.2049 24.808V24.8106H23.2885C22.8378 24.8106 22.4569 24.5105 22.3351 24.0994L17.6534 11.6633L17.6413 11.6296C17.2822 10.6609 16.5434 9.84749 15.6628 9.25464C14.6539 8.57546 13.4828 8.19403 12.4868 8.19872H12.483V8.20283H7.18787C6.63877 8.20283 6.19332 7.75739 6.19332 7.20829C6.19332 6.65919 6.63877 6.21374 7.18787 6.21374H12.483V6.21785C13.859 6.21198 15.4379 6.7141 16.7657 7.60793C17.9678 8.4169 18.9868 9.55474 19.5009 10.9398L19.5103 10.9639L23.9742 22.8215H34.5348L36.5512 17.7859L34.3119 15.5467L34.314 15.5446C33.6457 14.8757 33.3109 13.998 33.3109 13.1245C33.3109 12.2474 33.6448 11.3691 34.312 10.702L37.5813 7.43261L37.5816 7.43232C38.2484 6.76547 39.1264 6.43161 40.0035 6.43161C40.8803 6.43161 41.7586 6.76547 42.4254 7.43232L42.4257 7.43261L44.4956 9.50246C45.3083 9.02501 46.1546 8.59865 47.0288 8.22896C47.9 7.86044 48.7959 7.54742 49.7108 7.2949V4.41462C49.7108 3.50347 50.0729 2.67071 50.6601 2.05555C50.6781 2.0347 50.6969 2.01415 50.7165 1.99447C51.337 1.37402 52.1944 0.98877 53.137 0.98877H57.7609C58.7008 0.98877 59.5567 1.37431 60.1772 1.99447L60.181 1.99829C60.8012 2.61874 61.1867 3.47469 61.1867 4.41463V7.26672C62.1134 7.51719 63.0143 7.82668 63.8844 8.1902C64.7697 8.56018 65.6239 8.98596 66.4419 9.46253L68.4718 7.43262C69.1387 6.76577 70.0173 6.43161 70.8941 6.43161C71.7435 6.43161 72.5951 6.74669 73.2546 7.37566C73.2757 7.39357 73.2966 7.41266 73.3165 7.43262L76.5859 10.702L76.5838 10.704L76.5859 10.7058C77.2527 11.3729 77.5869 12.2497 77.5869 13.1245C77.5869 14.0013 77.2527 14.8798 76.5859 15.5467L74.4876 17.645C74.9442 18.4593 75.3506 19.3067 75.7015 20.1817C76.0468 21.0424 76.3384 21.9274 76.5718 22.8318H79.6039C80.515 22.8318 81.3478 23.1938 81.963 23.7811C81.9838 23.799 82.0044 23.8178 82.024 23.8375C82.6445 24.4579 83.0297 25.3154 83.0297 26.2579V30.8815C83.0297 31.8241 82.6445 32.6815 82.024 33.302L82.022 33.2999L82.0202 33.302C81.3998 33.9221 80.5438 34.3077 79.6039 34.3077H76.4091C76.1557 35.1886 75.8494 36.0425 75.4953 36.8656C75.0361 37.9329 74.4843 38.9683 73.8513 39.9611L73.8512 39.9611ZM16.9812 39.2584C16.4321 39.2584 15.9867 38.813 15.9867 38.2639C15.9867 37.7148 16.4321 37.2693 16.9812 37.2693H27.1108C27.5615 37.2693 27.9421 37.5694 28.0642 37.9808L32.2395 49.0812C32.3208 49.2973 32.3214 49.524 32.2571 49.7286L29.9793 57.9196C31.3709 58.3783 32.6168 59.1573 33.6295 60.1701C35.0863 61.6268 36.0603 63.5665 36.2911 65.7277H66.4575C66.6883 63.5665 67.6623 61.6268 69.119 60.1701C70.796 58.4931 73.1125 57.4557 75.6712 57.4557C78.2294 57.4557 80.5464 58.4931 82.2234 60.1701C83.9003 61.847 84.9377 64.1641 84.9377 66.7222C84.9377 69.281 83.9003 71.5975 82.2234 73.2744C80.5464 74.9513 78.2293 75.9888 75.6712 75.9888C73.1125 75.9888 70.796 74.9513 69.119 73.2744C67.6623 71.8177 66.688 69.8782 66.4575 67.7167H36.2911C36.0606 69.8782 35.0863 71.8177 33.6295 73.2744C31.9526 74.9513 29.6355 75.9888 27.0774 75.9888C24.5186 75.9888 22.2018 74.9513 20.5249 73.2744C18.8479 71.5974 17.8105 69.2803 17.8105 66.7222C17.8105 64.1641 18.8479 61.847 20.5249 60.1701C22.2018 58.4931 24.5186 57.4557 27.0774 57.4557C27.4012 57.4557 27.7213 57.4724 28.0367 57.5047L30.2689 49.4784L26.4249 39.2584H16.9813L16.9812 39.2584ZM27.0773 62.8439C28.1479 62.8439 29.1175 63.2782 29.8193 63.98V63.9838C30.5211 64.6859 30.9554 65.6546 30.9554 66.7223C30.9554 67.7929 30.5211 68.7625 29.8193 69.4642C29.1175 70.166 28.1479 70.6003 27.0773 70.6003C26.007 70.6003 25.0368 70.166 24.335 69.4642C23.6333 68.7625 23.199 67.7929 23.199 66.7223C23.199 65.652 23.6333 64.6818 24.335 63.98C25.0368 63.2782 26.0064 62.8439 27.0773 62.8439ZM28.4151 65.3842L28.4134 65.3859C28.0719 65.0444 27.5994 64.833 27.0773 64.833C26.5552 64.833 26.0825 65.0444 25.741 65.3859C25.3995 65.7274 25.1881 66.2002 25.1881 66.7223C25.1881 67.2443 25.3995 67.7168 25.741 68.0583C26.0825 68.3998 26.5552 68.6112 27.0773 68.6112C27.5994 68.6112 28.0719 68.3998 28.4134 68.0583C28.7549 67.7168 28.9663 67.2443 28.9663 66.7223C28.9663 66.1987 28.7554 65.7254 28.4151 65.3842ZM32.2236 61.576C30.9072 60.2596 29.0873 59.4448 27.0773 59.4448C25.0671 59.4448 23.2471 60.2596 21.9307 61.576C20.6144 62.8924 19.7995 64.7123 19.7995 66.7223C19.7995 68.7322 20.6144 70.5522 21.9307 71.8685C23.2471 73.1849 25.0671 73.9997 27.0773 73.9997C29.0873 73.9997 30.9072 73.1849 32.2236 71.8685C33.54 70.5522 34.3548 68.7322 34.3548 66.7223C34.3548 64.7123 33.5399 62.8924 32.2236 61.576ZM75.6712 62.8439C76.7388 62.8439 77.7075 63.2782 78.4096 63.98H78.4134C79.1152 64.6818 79.5495 65.652 79.5495 66.7223C79.5495 67.7929 79.1152 68.7625 78.4134 69.4642H78.4096C77.7075 70.166 76.7388 70.6003 75.6712 70.6003C74.6035 70.6003 73.6348 70.166 72.9327 69.4642H72.9289C72.2271 68.7625 71.7928 67.7929 71.7928 66.7223C71.7928 65.652 72.2271 64.6818 72.9289 63.98H72.9327C73.6348 63.2782 74.6035 62.8439 75.6712 62.8439ZM77.0093 65.3842C76.6681 65.0438 76.1947 64.833 75.6712 64.833C75.1476 64.833 74.6746 65.0435 74.3331 65.3842L74.3348 65.3859C73.9933 65.7274 73.7819 66.2002 73.7819 66.7223C73.7819 67.2443 73.9933 67.7168 74.3348 68.0583L74.3331 68.0601C74.6746 68.4007 75.1476 68.6112 75.6712 68.6112C76.1947 68.6112 76.6681 68.4004 77.0093 68.0601L77.0075 68.0583C77.349 67.7168 77.5604 67.2443 77.5604 66.7223C77.5604 66.2002 77.349 65.7274 77.0075 65.3859L77.0093 65.3842ZM80.8174 61.576C79.5011 60.2596 77.6811 59.4448 75.6712 59.4448C73.6612 59.4448 71.8413 60.2596 70.5249 61.576C69.2085 62.8924 68.3937 64.7123 68.3937 66.7223C68.3937 68.7322 69.2085 70.5522 70.5249 71.8685C71.8413 73.1849 73.6612 73.9997 75.6712 73.9997C77.6811 73.9997 79.5011 73.1849 80.8174 71.8685C82.1338 70.5522 82.9487 68.7322 82.9487 66.7223C82.9487 64.7123 82.1338 62.8924 80.8174 61.576Z" fill="#7B4C91"/>
</g>
<defs>
<filter id="filter0_d" x="0" y="0.98877" width="94.1341" height="83" filterUnits="userSpaceOnUse" color-interpolation-filters="sRGB">
<feFlood flood-opacity="0" result="BackgroundImageFix"/>
<feColorMatrix in="SourceAlpha" type="matrix" values="0 0 0 0 0 0 0 0 0 0 0 0 0 0 0 0 0 0 127 0"/>
<feOffset dy="4"/>
<feGaussianBlur stdDeviation="2"/>
<feColorMatrix type="matrix" values="0 0 0 0 0 0 0 0 0 0 0 0 0 0 0 0 0 0 0.25 0"/>
<feBlend mode="normal" in2="BackgroundImageFix" result="effect1_dropShadow"/>
<feBlend mode="normal" in="SourceGraphic" in2="effect1_dropShadow" result="shape"/>
</filter>
<clipPath id="clip0">
<rect width="86.1341" height="75" fill="white" transform="translate(4 0.98877)"/>
</clipPath>
</defs>
</svg>
