<svg width="84" height="81" viewBox="0 0 84 81" fill="none" xmlns="http://www.w3.org/2000/svg">
<g filter="url(#filter0_d)">
<path d="M37.3001 30.618C37.832 30.618 38.2635 31.0496 38.2635 31.5815C38.2635 32.1135 37.832 32.545 37.3001 32.545H8.03883C6.928 32.545 5.91758 32.0907 5.18593 31.3591C5.16602 31.3392 5.14781 31.319 5.12989 31.2979C4.43096 30.57 4 29.5846 4 28.5062V5.02785C4 3.91929 4.45429 2.91029 5.18565 2.17836L5.18935 2.17466C5.92128 1.4433 6.92971 0.989014 8.03883 0.989014H44.1937C45.3008 0.989014 46.3095 1.44273 47.0429 2.17495L47.0446 2.17694L47.0466 2.17865L47.0503 2.18263C47.7802 2.9157 48.2325 3.9227 48.2325 5.02785V24.6198C48.2325 25.1518 47.801 25.5833 47.269 25.5833C46.7371 25.5833 46.3055 25.1518 46.3055 24.6198V5.02785C46.3055 4.44583 46.0688 3.91758 45.6882 3.53697L45.6845 3.53327C45.3039 3.15266 44.7757 2.91598 44.1937 2.91598H8.03883C7.45824 2.91598 6.93027 3.15266 6.54767 3.53298L6.54397 3.53668C6.16364 3.91929 5.92696 4.44782 5.92696 5.02785V28.5062C5.92696 29.068 6.14743 29.5795 6.505 29.9567L6.54795 29.9971C6.93113 30.3802 7.45909 30.618 8.03883 30.618H37.3001V30.618Z" fill="#3E9D26"/>
<path d="M4.96361 10.5193C4.43166 10.5193 4.00012 10.0877 4.00012 9.55577C4.00012 9.02382 4.43165 8.59229 4.96361 8.59229H47.269C47.8009 8.59229 48.2325 9.02382 48.2325 9.55577C48.2325 10.0877 47.8009 10.5193 47.269 10.5193H4.96361Z" fill="#3E9D26"/>
<path d="M4.96361 15.1599C4.43166 15.1599 4.00012 14.7283 4.00012 14.1964C4.00012 13.6644 4.43165 13.2329 4.96361 13.2329H47.269C47.8009 13.2329 48.2325 13.6644 48.2325 14.1964C48.2325 14.7283 47.8009 15.1599 47.269 15.1599H4.96361Z" fill="#3E9D26"/>
<path d="M50.4559 27.8141C53.1558 31.3608 55.9731 34.8796 58.7173 38.3879L61.3546 37.1761L53.1703 27.6098C52.2654 27.677 51.3605 27.7427 50.4559 27.8141L50.4559 27.8141ZM47.8804 27.5586L47.8812 27.558C47.7856 27.4241 47.7233 27.2639 47.7074 27.0881C47.6599 26.5604 48.0491 26.0933 48.5767 26.0458C50.1308 25.9053 51.3773 25.8131 52.6523 25.7193L53.5156 25.6553V25.6564C53.8089 25.6359 54.1076 25.7497 54.3133 25.9901L63.6409 36.8928L63.6403 36.8933C64.0522 37.3732 63.8926 38.1242 63.3098 38.3905L58.8468 40.4409C58.4485 40.634 57.9559 40.5302 57.6725 40.1675C54.5508 36.1768 50.8311 31.7212 47.8804 27.5586L47.8804 27.5586Z" fill="#3E9D26"/>
<path d="M37.0621 32.6731C36.6946 32.2908 36.7062 31.6823 37.0885 31.3148C37.4709 30.9472 38.0793 30.9589 38.4469 31.3412C39.7221 32.6643 40.9206 34.0789 42.1182 35.4927C43.303 36.8911 44.488 38.2907 45.7064 39.5543C46.0739 39.9366 46.0623 40.5451 45.68 40.9126C45.2976 41.2802 44.6892 41.2685 44.3216 40.8862C43.0464 39.5634 41.8479 38.1485 40.6503 36.7347C39.4656 35.3363 38.2802 33.9367 37.0621 32.6731Z" fill="#3E9D26"/>
<path d="M75.3723 35.5679C76.9801 37.1408 77.4165 39.0225 77.3399 41.2089H77.3388L75.3456 70.7998L58.165 71.07C55.5673 70.2687 53.6926 68.6959 52.3733 66.5337C50.9888 64.2651 50.192 61.3322 49.8014 57.9434L49.0325 45.6295C48.7293 44.1813 48.205 43.0372 47.5948 42.0546C46.9881 41.0778 46.3062 40.2719 45.6918 39.5804C45.3385 39.1835 44.73 39.148 44.3332 39.5013C44.1503 39.6643 44.0439 39.8816 44.0174 40.1072H44.0171C43.7267 42.5459 43.4297 44.3127 42.6568 45.0967C42.0324 45.7302 40.8869 45.7641 38.8211 45.0518C38.7975 43.0892 38.7742 40.9771 38.7508 38.8612C38.7249 36.4677 38.6982 34.0779 38.6729 31.9957C38.6698 31.7396 38.5668 31.5081 38.4012 31.338L38.4021 31.3371C36.1383 29.0096 34.7589 27.1313 34.0509 25.5172C33.1184 23.3914 33.2345 20.883 35.0787 19.294C36.2899 18.2503 38.2229 17.9098 39.7618 18.2591C40.4152 18.4073 41.0345 18.7239 41.5135 19.323L41.5124 19.3239C46.87 26.2981 52.2143 33.2425 57.6313 40.1675C57.9146 40.5302 58.4073 40.634 58.8056 40.4408L60.0197 39.883L58.7962 38.3327L58.6762 38.3879L53.2964 31.5103L53.2762 31.4827L50.454 27.8089L50.4898 27.8063L49.0593 25.9934L43.04 18.1575L43.0385 18.1587L43.0289 18.1462C42.2364 17.1451 41.2328 16.6234 40.1834 16.385C38.0493 15.9006 35.4945 16.4004 33.8219 17.8415C31.33 19.9886 31.0128 23.3738 32.29 26.2847C33.0624 28.0447 34.4841 30.0257 36.7584 32.401C36.7832 34.4386 36.8077 36.6595 36.8318 38.876C36.8577 41.239 36.8839 43.6081 36.9092 45.6664C36.8822 46.0775 37.1223 46.4755 37.5271 46.6294C40.82 47.8841 42.7521 47.7371 44.0268 46.4439C44.8765 45.582 45.3129 44.2655 45.6158 42.5473C45.7342 42.7165 45.85 42.8909 45.9615 43.0707C46.4664 43.8837 46.8985 44.8193 47.1332 45.9051L47.8827 58.0617C47.8833 58.0921 47.8856 58.1229 47.889 58.1539C48.3094 61.8081 49.1887 65.0046 50.7325 67.5344C52.3204 70.1364 54.5907 72.0184 57.7554 72.954L57.7557 72.9529C57.8461 72.9796 57.942 72.993 58.0413 72.9916L76.1987 72.7057C76.721 72.7316 77.1701 72.3333 77.2051 71.8093L79.2578 41.3369H79.2564L79.2578 41.3067C79.3591 38.5813 78.7489 36.179 76.7468 34.2247C75.4798 32.8524 74.1161 31.3243 72.7532 29.797C67.3507 23.7419 61.9473 17.6882 59.0039 17.8378H58.9934H47.6062C47.0743 17.8378 46.6427 18.2693 46.6427 18.8013C46.6427 19.3332 47.0743 19.7648 47.6062 19.7648H56.1342C57.0604 19.7648 59.0864 19.7613 59.1316 19.7548C61.1027 19.6316 66.2094 25.3537 71.3155 31.0765C72.6571 32.5796 73.9986 34.0836 75.3723 35.5679L75.3723 35.5679ZM75.4036 35.599C75.3823 35.5793 75.3615 35.5591 75.3413 35.5372L75.4036 35.599Z" fill="#3E9D26"/>
</g>
<defs>
<filter id="filter0_d" x="0" y="0.989014" width="83.2684" height="80.0027" filterUnits="userSpaceOnUse" color-interpolation-filters="sRGB">
<feFlood flood-opacity="0" result="BackgroundImageFix"/>
<feColorMatrix in="SourceAlpha" type="matrix" values="0 0 0 0 0 0 0 0 0 0 0 0 0 0 0 0 0 0 127 0"/>
<feOffset dy="4"/>
<feGaussianBlur stdDeviation="2"/>
<feColorMatrix type="matrix" values="0 0 0 0 0 0 0 0 0 0 0 0 0 0 0 0 0 0 0.25 0"/>
<feBlend mode="normal" in2="BackgroundImageFix" result="effect1_dropShadow"/>
<feBlend mode="normal" in="SourceGraphic" in2="effect1_dropShadow" result="shape"/>
</filter>
</defs>
</svg>
