<svg width="8" height="17" viewBox="0 0 8 17" fill="none" xmlns="http://www.w3.org/2000/svg">
<path fill-rule="evenodd" clip-rule="evenodd" d="M0.393173 14.0607H1.96268V8.05208H0.393173C0.177036 8.05208 0 7.8753 0 7.6589V6.40704C0 6.19078 0.176909 6.01387 0.393173 6.01387H5.62377C5.84003 6.01387 6.01694 6.19091 6.01694 6.40704V7.11289V7.6589V14.0607H7.60683C7.82309 14.0607 8 14.2379 8 14.4539V15.7058C8 15.9219 7.82296 16.0989 7.60683 16.0989H0.393187C0.17705 16.0989 1.41005e-05 15.9222 1.41005e-05 15.7058V14.4539C1.41005e-05 14.2376 0.176923 14.0607 0.393187 14.0607L0.393173 14.0607ZM2.32771 0H5.56887C5.78513 0 5.96204 0.176909 5.96204 0.393173V3.63433C5.96204 3.8506 5.78513 4.0275 5.56887 4.0275H2.32771C2.11132 4.0275 1.93453 3.8506 1.93453 3.63433V0.393173C1.93453 0.176909 2.11132 0 2.32771 0V0Z" fill="#5394D4"/>
</svg>
