<svg width="26" height="26" viewBox="0 0 26 26" fill="none" xmlns="http://www.w3.org/2000/svg">
<g clip-path="url(#clip0)">
<path d="M10.0258 13.7152L14.4192 10.6707L11.8666 6.67105L7.50113 9.65185L10.0258 13.7152L10.0258 13.7152ZM11.2508 19.1779C11.6212 19.3213 11.9568 19.5378 12.2401 19.8103L9.27454 15.0868L9.26795 15.0772C9.25459 15.0569 9.24266 15.0363 9.23161 15.0152L6.00438 9.82128C5.80633 9.50299 5.89413 9.08164 6.19869 8.87225L11.6832 5.12592C11.9949 4.91324 12.4164 4.99951 12.6241 5.31871L12.6433 5.35009L15.5422 9.89241L15.994 9.57941C16.3043 9.36509 16.7257 9.449 16.9349 9.76674L16.9549 9.79884L20.8874 15.8996C21.0936 16.2188 21.0081 16.6493 20.6965 16.8605L20.6731 16.8756L14.0635 21.4083C13.7533 21.621 13.333 21.536 13.1253 21.2182L13.1182 21.2069L13.1173 21.2075L13.0288 21.0665C13.1294 21.3727 13.1839 21.7007 13.1839 22.0416C13.1839 22.1138 13.1814 22.1853 13.1766 22.2563L13.3559 22.543L19.135 18.5973C19.4122 18.4082 19.7867 18.485 19.9714 18.7688C20.1561 19.0526 20.0811 19.4362 19.804 19.6253L13.515 23.9192L13.5143 23.9181L13.5057 23.924C13.2282 24.1064 12.8594 24.0259 12.6782 23.7448C12.5696 23.9105 12.4456 24.0646 12.3085 24.205C12.2966 24.2173 12.2841 24.2289 12.2715 24.2399C11.7338 24.7729 11.0016 25.1014 10.196 25.1014C9.37301 25.1014 8.62657 24.7584 8.08585 24.205L8.08354 24.2027C7.54317 23.6489 7.20834 22.8845 7.20834 22.0416C7.20834 21.1987 7.54317 20.4343 8.08354 19.8805L8.08478 19.8794L8.08354 19.8781C8.51865 19.4325 9.08715 19.1237 9.72227 19.0199L2.42537 7.3561C2.28395 7.18428 2.07611 7.08743 1.84635 7.07575C1.58543 7.06226 1.2969 7.15218 1.03011 7.35738L1.01176 7.37307L0.976497 7.40189C0.716288 7.61365 0.337463 7.56933 0.130685 7.30284C-0.0760926 7.03635 -0.0328134 6.64839 0.227396 6.43662L0.26266 6.4078C0.274771 6.39795 0.28706 6.38865 0.299706 6.37989C0.804808 5.98828 1.37385 5.81791 1.90299 5.84528C2.47738 5.87464 3.00438 6.13219 3.36718 6.59002L3.37145 6.59549L3.37199 6.59495L3.38891 6.61665C3.40262 6.63434 3.41509 6.65258 3.42667 6.67119L11.2508 19.1779L11.2508 19.1779ZM15.7899 11.3971C15.7692 11.4149 15.7472 11.4317 15.724 11.4472L10.7578 14.8846L13.8842 19.8641L19.3876 16.09L16.1857 11.1229L15.7899 11.397L15.7899 11.3971ZM6.19959 8.87353L6.19798 8.87116L6.19959 8.87353ZM11.4558 20.7515C11.1336 20.4215 10.688 20.2172 10.1961 20.2172C9.70414 20.2172 9.25853 20.4215 8.93634 20.7515L8.93527 20.7504C8.61398 21.0802 8.41485 21.5367 8.41485 22.0416C8.41485 22.5465 8.61397 23.003 8.93527 23.3328C9.25728 23.6619 9.70308 23.8658 10.1961 23.8658C10.6759 23.8658 11.111 23.6726 11.4309 23.3589L11.4558 23.3317C11.778 23.0018 11.9775 22.5454 11.9775 22.0416C11.9775 21.5378 11.778 21.0814 11.4558 20.7515L11.4558 20.7515Z" fill="white"/>
</g>
<ellipse cx="21.5" cy="4.52074" rx="4.5" ry="4.52074" fill="white"/>
<rect x="21.0073" y="2.00928" width="1" height="5.02309" fill="#42C936"/>
<rect width="1.00464" height="5" transform="matrix(-0.00856956 0.999963 -0.999963 -0.0086493 24.0078 4.0188)" fill="#42C936"/>
<defs>
<clipPath id="clip0">
<rect width="21" height="20.0922" fill="white" transform="translate(0 5.00928)"/>
</clipPath>
</defs>
</svg>
