<svg width="17" height="16" viewBox="0 0 17 16" fill="none" xmlns="http://www.w3.org/2000/svg">
<g clip-path="url(#clip0)">
<path fill-rule="evenodd" clip-rule="evenodd" d="M6.69608 0C10.1057 0 9.74211 4.40819 8.40036 6.63385L8.41534 7.22192C8.86308 7.37892 9.3123 7.54782 9.7632 7.72862C8.81331 8.66171 8.223 9.96468 8.223 11.4068C8.223 12.0478 8.33984 12.6611 8.55264 13.2269H0V9.42187C1.67982 8.53127 3.33897 7.79597 4.97683 7.22192L4.9918 6.63385C3.65006 4.40819 3.28625 5.39602e-06 6.69608 5.39602e-06L6.69608 0ZM13.3228 7.70248C15.3535 7.70248 17 9.3611 17 11.4068C17 13.4525 15.3535 15.1111 13.3228 15.1111C11.292 15.1111 9.64552 13.4525 9.64552 11.4068C9.64552 9.3611 11.292 7.70248 13.3228 7.70248ZM15.3415 10.7848V12.0287H13.9401V13.4404H12.7053V12.0287H11.3038V10.7848H12.7053V9.373H13.9401V10.7848H15.3415Z" fill="#A5A5A5"/>
</g>
<defs>
<clipPath id="clip0">
<rect width="17" height="15.1111" fill="white"/>
</clipPath>
</defs>
</svg>
