<svg width="16" height="19" viewBox="0 0 16 19" fill="none" xmlns="http://www.w3.org/2000/svg">
<g clip-path="url(#clip0)">
<path fill-rule="evenodd" clip-rule="evenodd" d="M8.5751 0.161299L12 2.17501L15.4249 4.18878C15.7907 4.40384 16 4.77319 16 5.20331V9.23075V13.2582C16 13.6884 15.7907 14.0577 15.4249 14.2727L12 16.2865L8.5751 18.3002C8.20931 18.5153 7.79062 18.5153 7.42483 18.3002L3.99999 16.2865L0.575115 14.2727C0.209322 14.0576 0 13.6883 0 13.2582V9.23075V5.20331C0 4.77318 0.209323 4.40384 0.575115 4.18878L3.99999 2.17501L7.42483 0.161299C7.79062 -0.0537662 8.20931 -0.0537662 8.5751 0.161299ZM7.99999 4.33655C8.96775 4.33899 9.93723 4.34148 10.905 4.34393C11.6267 4.87594 12.0475 5.5306 12.2372 6.27942H12.5552V6.27799C12.5552 6.1381 12.6676 6.02368 12.8049 6.02368H13.6698C13.8071 6.02368 13.9195 6.1381 13.9195 6.27799V6.63548C13.9195 6.77532 13.8071 6.88975 13.6698 6.88975H12.8049C12.7408 6.88975 12.6821 6.8648 12.6378 6.82402H12.3338L12.3348 6.8332C12.9097 7.33966 13.3776 7.94782 13.7405 8.65593L13.6094 13.0842H11.8296V12.5326L8.00483 12.6676L7.99994 12.6681L7.99514 12.6676L4.17032 12.5326V13.0842H2.39058L2.25942 8.65593C2.62232 7.94782 3.09028 7.33966 3.66512 6.8332L3.66616 6.82402H3.36214C3.31785 6.8648 3.25916 6.88975 3.19503 6.88975H2.33016C2.19285 6.88975 2.08049 6.77532 2.08049 6.63548V6.27799C2.08049 6.1381 2.19285 6.02368 2.33016 6.02368H3.19503C3.33239 6.02368 3.44475 6.1381 3.44475 6.27799V6.27942H3.76272C3.95248 5.53059 4.37325 4.87594 5.09501 4.34393C6.06273 4.34148 7.03221 4.33899 7.99998 4.33655H7.99999ZM8.00374 9.8039H7.99623H6.79047V9.93216C6.97978 9.97999 7.88423 10.2368 8.00017 10.2368C8.11547 10.2368 9.02065 9.97985 9.2095 9.93216V9.8039H8.00375H8.00374ZM8.00012 5.58017H7.99985H7.0608V5.16116H7.80398V4.81539H5.35212C4.51864 5.49088 4.08862 6.16633 4.14555 6.84179C5.36851 7.08987 6.61172 7.18249 7.86883 7.1693H7.871L7.99727 7.16759V7.1693H8.0027V7.16759L8.12897 7.1693H8.20609V7.16994C9.43766 7.1788 10.6558 7.08494 11.8544 6.84179C11.9113 6.16634 11.4813 5.49088 10.6479 4.81539H8.19599V5.16116H8.93917V5.58017H8.00012L8.00012 5.58017ZM8.00465 12.1754C9.66256 12.1026 10.0732 12.0384 11.6572 11.5344C11.6526 11.4902 11.648 11.4461 11.6435 11.402L8.04342 11.5743V11.5754C8.01067 11.5754 7.98223 11.5754 7.94917 11.5754V11.574L4.3565 11.402C4.35193 11.4461 4.3474 11.4902 4.34278 11.5344C5.92674 12.0384 6.33741 12.1026 7.99532 12.1754L7.99994 12.1757L8.00465 12.1754L8.00465 12.1754ZM3.30708 10.9841C3.11543 10.9841 2.96 11.126 2.96 11.301C2.96 11.4759 3.11543 11.6178 3.30708 11.6178C3.49879 11.6178 3.65417 11.4759 3.65417 11.301C3.65417 11.126 3.49879 10.9841 3.30708 10.9841ZM5.44732 9.90943C5.46213 9.81755 5.47698 9.76165 5.4917 9.66982C5.52494 9.4626 5.41068 9.41915 5.34089 9.39918C4.67244 9.20787 4.14882 9.0369 3.45622 8.83055C3.21442 8.75855 2.91575 8.79674 2.90909 9.03099C2.90438 9.24219 2.89967 9.35431 2.89496 9.5655C2.89233 9.6719 3.05497 9.90315 3.243 9.90943C4.02545 9.90943 4.66487 9.90943 5.44732 9.90943L5.44732 9.90943ZM12.6929 10.9841C12.8846 10.9841 13.04 11.126 13.04 11.301C13.04 11.4759 12.8846 11.6178 12.6929 11.6178C12.5012 11.6178 12.3458 11.4759 12.3458 11.301C12.3458 11.126 12.5012 10.9841 12.6929 10.9841ZM10.5527 9.90943C10.5379 9.81755 10.523 9.76165 10.5083 9.66982C10.475 9.4626 10.5893 9.41915 10.6591 9.39918C11.3275 9.20787 11.8512 9.0369 12.5438 8.83055C12.7856 8.75855 13.0842 8.79674 13.0909 9.03099C13.0956 9.24219 13.1003 9.35431 13.105 9.5655C13.1076 9.6719 12.945 9.90315 12.757 9.90943C11.9745 9.90943 11.3351 9.90943 10.5527 9.90943L10.5527 9.90943Z" fill="#5394D4"/>
</g>
<defs>
<clipPath id="clip0">
<rect width="16" height="18.4615" fill="white"/>
</clipPath>
</defs>
</svg>
